# AST/ASF file generated using VICON BodyLanguage
# -----------------------------------------------
:version 1.10
:name VICON
:units
  mass 1.0
  length 0.45
  angle deg
:documentation
   .ast/.asf automatically generated from VICON data using
   VICON BodyBuilder and BodyLanguage model FoxedUp or BRILLIANT.MOD
:root
   order TX TY TZ RX RY RZ
   axis XYZ
   position 0 0 0  
   orientation 0 0 0 
:bonedata
  begin
     id 1 
     name lhipjoint
     direction 0.627457 -0.725269 0.283342 
     length 2.53237 
     axis 0 0 0  XYZ
  end
  begin
     id 2 
     name lfemur
     direction 0.34202 -0.939693 0  
     length 7.32496  
     axis 0 0 20  XYZ
    dof rx ry rz
    limits (-160.0 20.0)
           (-70.0 70.0)
           (-60.0 70.0)
  end
  begin
     id 3 
     name ltibia
     direction 0.34202 -0.939693 0   
     length 7.69674   
     axis 0 0 20   XYZ
    dof rx
    limits (-10.0 170.0)
  end
  begin
     id 4 
     name lfoot
     direction 0.127289 -0.349722 0.928166   
     length 1.8612   
     axis -90 7.62852e-016 20   XYZ
    dof rx rz
    limits (-45.0 90.0)
           (-70.0 20.0)
  end
  begin
     id 5 
     name ltoes
     direction 1.53561e-011 -4.21864e-011 1   
     length 0.925608   
     axis -90 7.62852e-016 20   XYZ
    dof rx
    limits (-90.0 20.0)
  end
  begin
     id 6 
     name rhipjoint
     direction -0.609094 -0.738725 0.288599   
     length 2.48624  
     axis 0 0 0  XYZ 
  end
  begin
     id 7 
     name rfemur
     direction -0.34202 -0.939693 0   
     length 7.44259   
     axis 0 0 -20   XYZ
    dof rx ry rz
    limits (-160.0 20.0)
           (-70.0 70.0)
           (-70.0 60.0)
  end
  begin
     id 8 
     name rtibia
     direction -0.34202 -0.939693 0   
     length 7.7781   
     axis 0 0 -20   XYZ
    dof rx
    limits (-10.0 170.0)
 end
 begin
     id 9 
     name rfoot
     direction -0.107015 -0.294021 0.949789   
     length 2.14741  
     axis -90 -7.62852e-016 -20   XYZ
    dof rx rz
    limits (-45.0 90.0)
           (-20.0 70.0)
  end
  begin
     id 10 
     name rtoes
     direction -1.53497e-011 -4.21924e-011 1   
     length 1.0706   
     axis -90 -7.62852e-016 -20   XYZ
    dof rx
    limits (-90.0 20.0)
  end
  begin
     id 11 
     name lowerback
     direction -0.0142066 0.998112 -0.0597545   
     length 1.86627   
     axis 0 0 0   XYZ
    dof rx ry rz
    limits (-20.0 45.0)
           (-30.0 30.0)
           (-30.0 30.0)
  end
  begin
     id 12 
     name upperback
     direction 0.00547294 0.999744 0.0219437   
     length 1.86272   
     axis 0 0 0   XYZ
    dof rx ry rz
    limits (-20.0 45.0)
           (-30.0 30.0)
           (-30.0 30.0)
  end
  begin
     id 13 
     name thorax
     direction 0.0116162 0.998704 0.0495538   
     length 1.8703   
     axis 0 0 0   XYZ
    dof rx ry rz
    limits (-20.0 45.0)
           (-30.0 30.0)
           (-30.0 30.0)
  end
  begin
     id 14 
     name lowerneck
     direction -0.0106574 0.998739 0.0490586   
     length 1.8074   
     axis 0 0 0   XYZ
    dof rx ry rz
    limits (-20.0 45.0)
           (-30.0 30.0)
           (-30.0 30.0)
  end
  begin
     id 15 
     name upperneck
     direction 0.030527 0.976587 -0.212944   
     length 1.80681   
     axis 0 0 0   XYZ
    dof rx ry rz
    limits (-20.0 45.0)
           (-30.0 30.0)
           (-30.0 30.0)
  end
  begin
     id 16
     name head
     direction 0.00869225 0.997035 -0.0764531  
     length 1.8313  
     axis 0 0 0   XYZ
    dof rx ry rz
    limits (-20.0 45.0)
           (-30.0 30.0)
           (-30.0 30.0)
  end
  begin
     id 17 
     name lclavicle
     direction 0.915958 0.399447 0.0382386  
     length 3.78965  
     axis 0 0 0   XYZ
    dof ry rz
    limits (-20.0 10.0)
           (0.0 20.0)
  end
  begin
     id 18 
     name lhumerus
     direction 1 -4.48967e-011 3.19303e-027   
     length 4.78095   
     axis -180 -30 -90   XYZ
    dof rx ry rz
    limits (-60.0 90.0)
           (-90.0 90.0)
           (-90.0 90.0)
  end
  begin
     id 19
     name lradius
     direction 1 -4.48967e-011 -3.77974e-027   
     length 3.58615   
     axis -180 -30 -90   XYZ
    dof rx
    limits (-10.0 170.0)
  end
  begin
     id 20
     name lwrist
     direction 1 -4.48927e-011 1.2807e-027   
     length 1.79307   
     axis 1.91374e-015 90 90   XYZ
    dof ry
    limits (-180.0 0.0)
 end
  begin
     id 21 
     name lhand
     direction 1 -4.49036e-011 2.5614e-027   
     length 0.659812   
     axis -1.63439e-015 90 90   XYZ
    dof rx rz
    limits (-90.0 90.0)
           (-45.0 45.0)
  end
  begin
     id 22 
     name lfingers
     direction 1 -4.49052e-011 5.1228e-027   
     length 0.531957   
     axis -3.26879e-015 90 90   XYZ
    dof rx
    limits (0.0 90.0)
  end
  begin
     id 23
     name lthumb
     direction 0.707107 -6.35012e-011 0.707107   
     length 0.763787   
     axis -90 45 2.85299e-015   XYZ
    dof rx rz
    limits (-45.0 45.0)
           (-45.0 45.0)
  end
  begin
     id 24 
     name rclavicle
     direction -0.895351 0.435135 0.0948887   
     length 3.70497  
     axis 0 0 0   XYZ 
    dof ry rz
    limits (-10.0 20.0)
           (-20.0 0.0)
  end
  begin
     id 25 
     name rhumerus
     direction -1 -4.48971e-011 2.38946e-027  
     length 4.48913   
     axis -180 30 90   XYZ
    dof rx ry rz
    limits (-90.0 60.0)
           (-90.0 90.0)
           (-90.0 90.0)
  end
  begin
     id 26 
     name rradius
     direction -1 -4.4895e-011 4.38668e-027   
     length 3.7051   
     axis -180 30 90   XYZ
    dof rx
    limits (-10.0 170.0)
  end
  begin
     id 27 
     name rwrist
     direction -1 -4.49007e-011 1.2807e-027   
     length 1.85255   
     axis 1.91374e-015 -90 -90   XYZ
    dof ry
    limits (-180.0 0.0)
  end
  begin
     id 28
     name rhand
     direction -1 -4.48851e-011 2.5614e-027   
     length 0.449136   
     axis -1.63439e-015 -90 -90   XYZ
    dof rx rz
    limits (-90.0 90.0)
           (-45.0 45.0)
  end
  begin
     id 29
     name rfingers
     direction -1 -4.49128e-011 5.1228e-027   
     length 0.362105   
     axis -3.26879e-015 -90 -90   XYZ
    dof rx
    limits (0.0 90.0)
  end
  begin
     id 30
     name rthumb
     direction -0.707107 -6.34851e-011 0.707107   
     length 0.519912   
     axis -90 -45 -2.85299e-015   XYZ
    dof rx rz
    limits (-45.0 45.0)
           (-45.0 45.0)
  end
:hierarchy
  begin
    root lhipjoint rhipjoint lowerback
    lhipjoint lfemur
    lfemur ltibia
    ltibia lfoot
    lfoot ltoes
    rhipjoint rfemur
    rfemur rtibia
    rtibia rfoot
    rfoot rtoes
    lowerback upperback
    upperback thorax
    thorax lowerneck lclavicle rclavicle
    lowerneck upperneck
    upperneck head
    lclavicle lhumerus
    lhumerus lradius
    lradius lwrist
    lwrist lhand lthumb
    lhand lfingers
    rclavicle rhumerus
    rhumerus rradius
    rradius rwrist
    rwrist rhand rthumb
    rhand rfingers
  end

#!OML:ASF I:\Actors\actors\Patient Classification 2\Patient 1\Session 1\actor1.ASF
:FULLY-SPECIFIED
:DEGREES
1
root -0.722798 18.612 6.05524 -1.02057 -0.215868 -2.73719
lowerback 8.21408 0.0831539 1.21811
upperback -2.05952 0.256054 0.206992
thorax -6.7693 0.0803576 -0.504035
lowerneck -14.8359 -0.958123 -0.292306
upperneck 23.0608 -2.02056 2.94252
head 9.79672 -0.625456 0.818092
rclavicle 1.11754e-014 2.5842e-015
rhumerus -46.5267 -3.58772 -87.4569
rradius 39.0663
rwrist 11.7542
rhand -4.05479 -37.128
rfingers 7.12502
rthumb 21.7013 -65.9316
lclavicle 1.11754e-014 2.5842e-015
lhumerus -43.4785 6.35647 87.6994
lradius 37.447
lwrist -0.105113
lhand -4.61597 -19.8613
lfingers 7.12502
lthumb 21.1623 9.00363
rfemur 10.9538 1.80259 17.2482
rtibia 1.27222e-014
rfoot -19.793 -13.2276
rtoes -4.34643
lfemur -2.7578 -4.81921 -11.2916
ltibia 23.1912
lfoot -21.4545 8.80544
ltoes -55.8148
2
root -0.722151 18.6116 6.05489 -1.02128 -0.205368 -2.72948
lowerback 8.20932 0.081549 1.22168
upperback -2.05172 0.253418 0.195831
thorax -6.75828 0.0787667 -0.517345
lowerneck -14.8568 -0.952319 -0.253553
upperneck 23.1047 -2.00611 2.87243
head 9.81479 -0.622715 0.789089
rclavicle 1.7375e-014 7.55382e-015
rhumerus -46.5284 -3.57996 -87.4761
rradius 39.0823
rwrist 11.7232
rhand -4.06302 -36.9825
rfingers 7.12502
rthumb 21.6934 -65.7871
lclavicle 1.7375e-014 7.55382e-015
lhumerus -43.4743 6.27883 87.7491
lradius 37.5843
lwrist -0.078677
lhand -4.611 -19.3226
lfingers 7.12502
lthumb 21.1671 9.54186
rfemur 10.9525 1.79242 17.2392
rtibia -5.08889e-014
rfoot -19.7604 -13.2681
rtoes -4.5607
lfemur -2.75869 -4.83078 -11.3009
ltibia 23.1872
lfoot -21.4427 8.79734
ltoes -55.8294
3
root -0.721396 18.6117 6.05451 -1.00715 -0.228016 -2.73539
lowerback 8.15701 0.0923689 1.24589
upperback -2.0289 0.268549 0.182056
thorax -6.70365 0.0853356 -0.547269
lowerneck -14.9014 -0.94721 -0.165569
upperneck 23.1253 -1.99246 2.75394
head 9.82809 -0.621654 0.734576
rclavicle -1.28899e-014 -3.97569e-015
rhumerus -46.4845 -3.60057 -87.5091
rradius 39.0858
rwrist 11.7201
rhand -4.08773 -36.9663
rfingers 7.12502
rthumb 21.6697 -65.7736
lclavicle -1.28899e-014 -3.97569e-015
lhumerus -43.3881 6.31283 87.6814
lradius 37.3628
lwrist -0.0978607
lhand -4.63021 -19.8072
lfingers 7.12502
lthumb 21.1487 9.05927
rfemur 10.9326 1.81466 17.2415
rtibia -3.18055e-015
rfoot -19.7957 -13.2457
rtoes -4.36112
lfemur -2.76953 -4.83504 -11.3018
ltibia 23.1874
lfoot -21.4242 8.83114
ltoes -55.8733
4
root -0.72124 18.6122 6.05354 -0.993497 -0.23987 -2.73209
lowerback 8.10438 0.108085 1.26659
upperback -1.99785 0.289206 0.15998
thorax -6.63998 0.0946994 -0.584607
lowerneck -14.9146 -0.949307 -0.0983965
upperneck 23.0873 -1.9896 2.66749
head 9.81533 -0.624668 0.693233
rclavicle -1.49399e-014 4.77083e-015
rhumerus -46.4142 -3.6648 -87.5282
rradius 39.0779
rwrist 11.7336
rhand -3.99484 -37.0839
rfingers 7.12502
rthumb 21.7589 -65.8809
lclavicle -1.49399e-014 4.77083e-015
lhumerus -43.242 6.37492 87.5362
lradius 36.809
lwrist -0.0889867
lhand -4.7713 -21.365
lfingers 7.12502
lthumb 21.0131 7.5166
rfemur 10.9165 1.82623 17.235
rtibia -2.06736e-014
rfoot -19.8467 -13.213
rtoes -4.22418
lfemur -2.78154 -4.84337 -11.3074
ltibia 23.1852
lfoot -21.4465 8.81913
ltoes -55.8145
5
root -0.720787 18.6128 6.05306 -0.982967 -0.244009 -2.73541
lowerback 8.11405 0.106191 1.26981
upperback -2.00883 0.287103 0.157309
thorax -6.65717 0.0933198 -0.588987
lowerneck -14.896 -0.935251 -0.0456073
upperneck 23.0816 -1.96467 2.59479
head 9.80802 -0.617084 0.662183
rclavicle -3.43525e-015 -7.95139e-016
rhumerus -46.4194 -3.67281 -87.5385
rradius 39.081
rwrist 11.738
rhand -3.89448 -37.1225
rfingers 7.12502
rthumb 21.8553 -65.9082
lclavicle -3.43525e-015 -7.95139e-016
lhumerus -43.2635 6.21295 87.6623
lradius 37.1056
lwrist 0.00237748
lhand -4.7722 -20.3377
lfingers 7.12502
lthumb 21.0123 8.54403
rfemur 10.9029 1.82988 17.2374
rtibia 2.54444e-014
rfoot -19.8321 -13.2451
rtoes -4.39451
lfemur -2.79121 -4.84793 -11.3052
ltibia 23.1876
lfoot -21.453 8.81724
ltoes -55.7986
6
root -0.719871 18.6128 6.05277 -0.975538 -0.239957 -2.71841
lowerback 8.16473 0.0941292 1.24243
upperback -2.05401 0.269571 0.161886
thorax -6.7346 0.0852333 -0.566656
lowerneck -14.8569 -0.915058 -0.0114216
upperneck 23.1194 -1.93047 2.53386
head 9.81242 -0.605192 0.639785
rclavicle 1.11568e-014 -1.98785e-015
rhumerus -46.482 -3.64613 -87.5375
rradius 39.091
rwrist 11.7585
rhand -3.81962 -37.1284
rfingers 7.12502
rthumb 21.9272 -65.9058
lclavicle 1.11568e-014 -1.98785e-015
lhumerus -43.3967 6.35775 87.5684
lradius 37.1704
lwrist -0.0929293
lhand -4.69411 -20.7541
lfingers 7.12502
lthumb 21.0873 8.11931
rfemur 10.8954 1.82612 17.2168
rtibia -1.90833e-014
rfoot -19.8032 -13.2708
rtoes -4.45684
lfemur -2.80235 -4.86318 -11.3292
ltibia 23.1935
lfoot -21.4442 8.84425
ltoes -55.7913
7
root -0.719226 18.612 6.05197 -0.994904 -0.245344 -2.71408
lowerback 8.2094 0.0827522 1.22964
upperback -2.07079 0.253878 0.16249
thorax -6.77838 0.0777207 -0.556848
lowerneck -14.8127 -0.895506 0.0170008
upperneck 23.1447 -1.90295 2.50331
head 9.81197 -0.593587 0.628072
rclavicle -8.41729e-015 0
rhumerus -46.5149 -3.63295 -87.5534
rradius 39.0946
rwrist 11.7974
rhand -3.80187 -37.19
rfingers 7.12502
rthumb 21.9442 -65.9654
lclavicle -8.41729e-015 0
lhumerus -43.4723 6.48854 87.4686
lradius 37.1458
lwrist -0.151682
lhand -4.63277 -21.2065
lfingers 7.12502
lthumb 21.1462 7.66025
rfemur 10.9168 1.83291 17.2093
rtibia 2.06736e-014
rfoot -19.8311 -13.2368
rtoes -4.32368
lfemur -2.7807 -4.88808 -11.3441
ltibia 23.1938
lfoot -21.445 8.89375
ltoes -55.8073
8
root -0.718293 18.6119 6.05088 -1.00636 -0.272888 -2.74385
lowerback 8.22046 0.0805684 1.26025
upperback -2.06446 0.255046 0.172674
thorax -6.77794 0.0772923 -0.563588
lowerneck -14.797 -0.880291 0.0272574
upperneck 23.1585 -1.87945 2.48358
head 9.8132 -0.584064 0.622548
rclavicle 5.10628e-015 1.98785e-015
rhumerus -46.5134 -3.60289 -87.582
rradius 39.1069
rwrist 11.7941
rhand -3.87119 -37.2502
rfingers 7.12502
rthumb 21.8777 -66.0334
lclavicle 5.10628e-015 1.98785e-015
lhumerus -43.4798 6.53503 87.4516
lradius 37.1702
lwrist -0.175165
lhand -4.60029 -21.1885
lfingers 7.12502
lthumb 21.1774 7.67476
rfemur 10.9203 1.8608 17.2371
rtibia -1.43125e-014
rfoot -19.8234 -13.2234
rtoes -4.19714
lfemur -2.76184 -4.88397 -11.3215
ltibia 23.189
lfoot -21.4554 8.94527
ltoes -55.8884
9
root -0.716832 18.6126 6.05029 -0.994687 -0.287238 -2.72999
lowerback 8.20692 0.0929749 1.26923
upperback -2.05914 0.272051 0.168477
thorax -6.76415 0.0852867 -0.575344
lowerneck -14.816 -0.881265 0.00414016
upperneck 23.1712 -1.87255 2.4728
head 9.82129 -0.583808 0.623555
rclavicle 1.1368e-015 -5.56597e-015
rhumerus -46.4947 -3.60339 -87.5821
rradius 39.1098
rwrist 11.7691
rhand -3.97957 -37.2466
rfingers 7.12502
rthumb 21.7736 -66.0419
lclavicle 1.1368e-015 -5.56597e-015
lhumerus -43.478 6.31744 87.665
lradius 37.5939
lwrist -0.0814899
lhand -4.54928 -19.6217
lfingers 7.12502
lthumb 21.2264 9.23612
rfemur 10.9033 1.87546 17.2172
rtibia 6.36111e-015
rfoot -19.7787 -13.2388
rtoes -4.20887
lfemur -2.77415 -4.86084 -11.3394
ltibia 23.1857
lfoot -21.4553 8.9494
ltoes -55.9374
10
root -0.715435 18.6128 6.05058 -0.985187 -0.292259 -2.71546
lowerback 8.1923 0.0994581 1.28142
upperback -2.05772 0.280789 0.153326
thorax -6.75398 0.0888119 -0.599226
lowerneck -14.834 -0.878124 -0.00406764
upperneck 23.1901 -1.86612 2.47081
head 9.83138 -0.581402 0.62508
rclavicle 4.9075e-016 -3.97569e-016
rhumerus -46.4812 -3.62652 -87.5878
rradius 39.1026
rwrist 11.7659
rhand -3.97574 -37.2731
rfingers 7.12502
rthumb 21.7773 -66.068
lclavicle 4.9075e-016 -3.97569e-016
lhumerus -43.4761 6.20603 87.7339
lradius 37.7373
lwrist -0.0402709
lhand -4.56495 -19.1267
lfingers 7.12502
lthumb 21.2114 9.73281
rfemur 10.8936 1.88099 17.1956
rtibia 2.06736e-014
rfoot -19.8101 -13.2186
rtoes -4.21918
lfemur -2.78047 -4.88362 -11.3596
ltibia 23.1785
lfoot -21.4632 8.93806
ltoes -55.8852
